<?xml version="1.0" encoding="utf-8"?>
<!-- Generator: Adobe Illustrator 30.3.0, SVG Export Plug-In . SVG Version: 9.03 Build 0)  -->
<svg version="1.0" xmlns="http://www.w3.org/2000/svg" xmlns:xlink="http://www.w3.org/1999/xlink" x="0px" y="0px"
	 viewBox="0 0 898.55 755.33" style="enable-background:new 0 0 898.55 755.33;" xml:space="preserve">
<style type="text/css">
	.st0{fill:#25B462;}
	.st1{fill:none;}
	.st2{fill:#20391B;}
</style>
<g id="Layer_1">
	<g id="Layer_1-2">
		<path class="st0" d="M738.64,276.43c-6.72-16.68-20.54-20.88-21.82-22c-11.7-10.34-2.47-21.22-19.95-30.7
			c-18.28-9.91-72-37-114.22-31.37c-9.22,1.23-27.83,17.6-41.21,17.6H357.11c-13.38,0-32-16.37-41.22-17.6
			c-42.24-5.63-95.93,21.46-114.22,31.37c-17.47,9.48-8.24,20.36-19.94,30.7c-1.28,1.12-15.1,5.32-21.82,22
			c-62.75,156-87.38,255.11-85.55,315.13c2.91,94.42,76.58,101.33,76.58,101.33c37-8.62,111.55-129.14,168.54-129.14h259.59
			c57,0,131.5,120.52,168.54,129.14c0,0,73.68-6.91,76.56-101.33C826.04,531.54,801.36,432.43,738.64,276.43z"/>
		<g id="Menu_Key">
			<path class="st2" d="M523.19,278.54c0,10.39-8.42,18.81-18.81,18.81c-10.39,0-18.81-8.42-18.81-18.81
				c0-10.39,8.42-18.81,18.81-18.81c0.01,0,0.01,0,0.02,0C514.78,259.75,523.19,268.16,523.19,278.54z"/>
		</g>
		<g id="Switcher_Key">
			<path class="st2" d="M415.21,278.54c0,10.39-8.42,18.81-18.81,18.81c-10.39,0-18.81-8.42-18.81-18.81
				c0-10.38,8.42-18.8,18.8-18.81c10.39-0.01,18.81,8.41,18.82,18.8C415.21,278.54,415.21,278.54,415.21,278.54z"/>
		</g>
		<g id="Left_Stick">
			<path class="st2" d="M259.75,395.11c-27-0.01-48.87-21.9-48.87-48.89c0.01-27,21.9-48.87,48.89-48.87
				c26.99,0.01,48.87,21.89,48.87,48.88C308.61,373.22,286.74,395.09,259.75,395.11z"/>
		</g>
		<g id="Right_Stick">
			<path class="st2" d="M547.28,497.04c-20.35,0-36.85-16.5-36.84-36.86c0-20.35,16.5-36.85,36.86-36.84
				c20.35,0,36.85,16.5,36.84,36.86c0,0,0,0,0,0.01C584.11,480.55,567.62,497.03,547.28,497.04z"/>
		</g>
		<g id="Button_Base">
			<g id="A">
				<path class="st2" d="M641.03,417.7c-13.92-0.02-25.18-11.32-25.16-25.24s11.32-25.18,25.24-25.16
					c13.9,0.02,25.16,11.3,25.16,25.2C666.26,406.43,654.96,417.72,641.03,417.7z"/>
				<path class="st2" d="M641.03,368.81c13.09-0.01,23.7,10.6,23.71,23.69c0.01,13.09-10.6,23.7-23.69,23.71
					c-13.09,0.01-23.7-10.6-23.71-23.69c0-0.01,0-0.01,0-0.02C617.34,379.42,627.95,368.81,641.03,368.81L641.03,368.81
					 M641.03,365.81c-14.75,0.01-26.7,11.96-26.69,26.71c0.01,14.75,11.96,26.7,26.71,26.69c14.75-0.01,26.7-11.96,26.69-26.71
					C667.73,377.76,655.77,365.82,641.03,365.81z"/>
			</g>
			<g id="Y">
				<path class="st2" d="M641.03,316.63c-13.92-0.02-25.18-11.32-25.16-25.24c0.02-13.92,11.32-25.18,25.24-25.16
					c13.9,0.02,25.16,11.3,25.16,25.2C666.26,305.36,654.96,316.64,641.03,316.63z"/>
				<path class="st2" d="M641.03,267.73c13.09-0.01,23.7,10.6,23.71,23.69c0.01,13.09-10.6,23.7-23.69,23.71
					c-13.09,0.01-23.7-10.6-23.71-23.69c0,0,0-0.01,0-0.01c0.01-13.08,10.61-23.68,23.69-23.69 M641.03,264.74
					c-14.75,0.01-26.7,11.96-26.69,26.71c0.01,14.75,11.96,26.7,26.71,26.69c14.75-0.01,26.7-11.96,26.69-26.71c0,0,0,0,0,0
					C667.73,276.69,655.77,264.75,641.03,264.74L641.03,264.74z"/>
			</g>
			<g id="B">
				<path class="st2" d="M691.57,367.16c-13.92,0-25.2-11.28-25.2-25.2s11.28-25.2,25.2-25.2c13.92,0,25.2,11.28,25.2,25.2
					C716.76,355.88,705.48,367.15,691.57,367.16z"/>
				<path class="st2" d="M691.57,318.27c13.09-0.01,23.7,10.6,23.71,23.69c0.01,13.09-10.6,23.7-23.69,23.71
					c-13.09,0.01-23.7-10.6-23.71-23.69c0-0.01,0-0.01,0-0.02c-0.01-13.08,10.59-23.68,23.67-23.69
					C691.56,318.27,691.57,318.27,691.57,318.27 M691.57,315.27c-14.75,0-26.7,11.95-26.7,26.7c0,14.75,11.95,26.7,26.7,26.7
					c14.75,0,26.7-11.95,26.7-26.7c0,0,0-0.01,0-0.01C718.26,327.23,706.31,315.29,691.57,315.27z"/>
			</g>
			<g id="X">
				<path class="st2" d="M590.49,367.16c-13.92-0.01-25.2-11.29-25.19-25.21c0.01-13.92,11.29-25.2,25.21-25.19
					c13.91,0.01,25.19,11.29,25.19,25.2C615.69,355.88,604.41,367.15,590.49,367.16z"/>
				<path class="st2" d="M590.49,318.27c13.09-0.01,23.7,10.6,23.71,23.69c0.01,13.09-10.6,23.7-23.69,23.71
					c-13.09,0.01-23.7-10.6-23.71-23.69c0-0.01,0-0.01,0-0.02C566.8,328.88,577.41,318.27,590.49,318.27L590.49,318.27
					 M590.49,315.27c-14.75,0.01-26.7,11.96-26.69,26.71c0.01,14.75,11.96,26.7,26.71,26.69c14.75-0.01,26.7-11.96,26.69-26.71
					C617.19,327.22,605.23,315.28,590.49,315.27z"/>
			</g>
		</g>
		<g>
			<g>
				<path class="st0" d="M314.46,174.7c-63.15-3.15-88.97,19.91-88.97,19.91s-12.94-50.13-12.84-90.5
					c0.02-8.29,6.68-15.4,15.86-17.1c23.16-4.28,64.64-9.42,73.76-9.12C302.27,77.88,295.11,123.94,314.46,174.7z"/>
			</g>
			<g>
				<path class="st0" d="M596.32,74.88c9.12-0.3,50.6,4.85,73.76,9.12c9.18,1.7,15.84,8.81,15.86,17.1
					c0.1,40.37-12.84,90.5-12.84,90.5s-25.83-23.06-88.97-19.91C603.49,120.93,596.32,74.88,596.32,74.88z"/>
			</g>
		</g>
	</g>
	<script  xmlns=""></script>
</g>
<g id="Layer_3">
	<path class="st2" d="M333.02,439.47v-30.92c0-3.04,2.46-5.5,5.5-5.5h26.84c3.04,0,5.5,2.46,5.5,5.5v30.92c0,3.04,2.46,5.5,5.5,5.5
		h31.09c3.04,0,5.5,2.46,5.5,5.5v26.88c0,3.04-2.46,5.5-5.5,5.5h-31.09c-3.04,0-5.5,2.46-5.5,5.5v31.05c0,3.04-2.46,5.5-5.5,5.5
		h-26.84c-3.04,0-5.5-2.46-5.5-5.5v-31.05c0-3.04-2.46-5.5-5.5-5.5h-31.07c-3.04,0-5.5-2.46-5.5-5.5v-26.88c0-3.04,2.46-5.5,5.5-5.5
		h31.07C330.55,444.97,333.02,442.51,333.02,439.47z"/>
</g>
</svg>
