<?xml version="1.0" encoding="utf-8"?>
<!-- Generator: Adobe Illustrator 30.3.0, SVG Export Plug-In . SVG Version: 9.03 Build 0)  -->
<svg version="1.0" xmlns="http://www.w3.org/2000/svg" xmlns:xlink="http://www.w3.org/1999/xlink" x="0px" y="0px"
	 viewBox="0 0 898.55 755.33" style="enable-background:new 0 0 898.55 755.33;" xml:space="preserve">
<style type="text/css">
	.st0{fill:#25B462;}
	.st1{fill:none;}
	.st2{fill:#71C280;}
	.st3{fill:#20391B;}
</style>
<g id="Layer_1">
	<g id="Layer_1-2">
		<path class="st0" d="M738.64,276.43c-6.72-16.68-20.54-20.88-21.82-22c-11.7-10.34-2.47-21.22-19.95-30.7
			c-18.28-9.91-72-37-114.22-31.37c-9.22,1.23-27.83,17.6-41.21,17.6H357.11c-13.38,0-32-16.37-41.22-17.6
			c-42.24-5.63-95.93,21.46-114.22,31.37c-17.47,9.48-8.24,20.36-19.94,30.7c-1.28,1.12-15.1,5.32-21.82,22
			c-62.75,156-87.38,255.11-85.55,315.13c2.91,94.42,76.58,101.33,76.58,101.33c37-8.62,111.55-129.14,168.54-129.14h259.59
			c57,0,131.5,120.52,168.54,129.14c0,0,73.68-6.91,76.56-101.33C826.04,531.54,801.36,432.43,738.64,276.43z"/>
		<g id="Left_Stick">
			<path class="st2" d="M259.75,400.3c-29.86-0.01-54.05-24.22-54.04-54.08s24.22-54.05,54.08-54.04
				c29.85,0.01,54.04,24.21,54.04,54.06C313.79,376.08,289.6,400.27,259.75,400.3z"/>
		</g>
		<g id="Right_Stick">
			<path class="st2" d="M547.28,503.36c-23.84,0-43.16-19.33-43.16-43.17c0-23.84,19.33-43.16,43.17-43.16
				c23.84,0,43.16,19.33,43.16,43.17c0,0,0,0,0,0.01C590.42,484.03,571.1,503.34,547.28,503.36z"/>
		</g>
		<g>
			<g>
				<path class="st0" d="M314.46,174.7c-63.15-3.15-88.97,19.91-88.97,19.91s-12.94-50.13-12.84-90.5
					c0.02-8.29,6.68-15.4,15.86-17.1c23.16-4.28,64.64-9.42,73.76-9.12C302.27,77.88,295.11,123.94,314.46,174.7z"/>
			</g>
			<g>
				<path class="st0" d="M596.32,74.88c9.12-0.3,50.6,4.85,73.76,9.12c9.18,1.7,15.84,8.81,15.86,17.1
					c0.1,40.37-12.84,90.5-12.84,90.5s-25.83-23.06-88.97-19.91C603.49,120.93,596.32,74.88,596.32,74.88z"/>
			</g>
		</g>
	</g>
	<script  xmlns=""></script>
</g>
<g id="Layer_3">
	<path class="st3" d="M333.02,439.47v-30.92c0-3.04,2.46-5.5,5.5-5.5h26.84c3.04,0,5.5,2.46,5.5,5.5v30.92c0,3.04,2.46,5.5,5.5,5.5
		h31.09c3.04,0,5.5,2.46,5.5,5.5v26.88c0,3.04-2.46,5.5-5.5,5.5h-31.09c-3.04,0-5.5,2.46-5.5,5.5v31.05c0,3.04-2.46,5.5-5.5,5.5
		h-26.84c-3.04,0-5.5-2.46-5.5-5.5v-31.05c0-3.04-2.46-5.5-5.5-5.5h-31.07c-3.04,0-5.5-2.46-5.5-5.5v-26.88c0-3.04,2.46-5.5,5.5-5.5
		h31.07C330.55,444.97,333.02,442.51,333.02,439.47z"/>
</g>
</svg>
