<?xml version="1.0" encoding="utf-8"?>
<!-- Generator: Adobe Illustrator 30.3.0, SVG Export Plug-In . SVG Version: 9.03 Build 0)  -->
<svg version="1.0" id="Layer_2_00000134237817824435998200000009465616645165721734_"
	 xmlns="http://www.w3.org/2000/svg" xmlns:xlink="http://www.w3.org/1999/xlink" x="0px" y="0px" viewBox="0 0 47.36 47.36"
	 style="enable-background:new 0 0 47.36 47.36;" xml:space="preserve">
<style type="text/css">
	.st0{fill:#20391B;}
</style>
<g id="Layer_1-2">
	<g>
		<g id="A">
			<path class="st0" d="M23.69,0c13.08,0,23.68,10.61,23.67,23.69c0,13.08-10.61,23.68-23.69,23.67C10.6,47.35,0,36.75,0,23.68
				C0,10.6,10.61,0,23.69,0z"/>
		</g>
		<path class="st0" d="M32.45,38.83l-2.78-7.66H17.54l-2.64,7.66H9.42l11.46-30.3h5.59L38,38.83H32.45z M23.66,13.08h-0.13
			c-0.08,0.74-0.23,1.46-0.45,2.17l-4.14,11.68h9.3l-4.17-11.68C23.86,14.54,23.73,13.81,23.66,13.08z"/>
	</g>
</g>
<script  xmlns=""></script>
</svg>
