<?xml version="1.0" encoding="utf-8"?>
<!-- Generator: Adobe Illustrator 30.3.0, SVG Export Plug-In . SVG Version: 9.03 Build 0)  -->
<svg version="1.0" id="Layer_1" xmlns="http://www.w3.org/2000/svg" xmlns:xlink="http://www.w3.org/1999/xlink" x="0px" y="0px"
	 viewBox="0 0 171.15 62.86" style="enable-background:new 0 0 171.15 62.86;" xml:space="preserve">
<style type="text/css">
	.st0{fill:#9FD7CB;}
</style>
<g>
	<path class="st0" d="M164.16,26.54c0.83-1.55,0.33-3.46-1.14-4.42c-6.23-4.08-16.75-12.43-30.15-16.63
		C110.92-1.37,29,32.26,13.45,38.78c-1.87,0.78-3.39,2.24-4.19,4.1C8.1,45.57,7.6,48.29,6.9,51.04c-0.96,3.74,2.86,6.9,6.37,5.31
		c35.11-15.88,88.26-31.14,105.48-27.82c8.14,1.57,17.6,9.97,27.49,20.76c1.77,1.93,4.92,1.53,6.16-0.78L164.16,26.54z"/>
	<polygon class="st0" points="165.68,23.71 165.68,23.71 165.69,23.72 	"/>
	<path class="st0" d="M0.06,62.86c0.03-0.02,0.05-0.05,0.08-0.07C0.09,62.81,0.05,62.84,0,62.86H0.06z"/>
</g>
<script  xmlns=""></script>
</svg>
