<?xml version="1.0" encoding="utf-8"?>
<!-- Generator: Adobe Illustrator 30.3.0, SVG Export Plug-In . SVG Version: 9.03 Build 0)  -->
<svg version="1.0" id="Layer_1" xmlns="http://www.w3.org/2000/svg" xmlns:xlink="http://www.w3.org/1999/xlink" x="0px" y="0px"
	 viewBox="0 0 171.15 62.86" style="enable-background:new 0 0 171.15 62.86;" xml:space="preserve">
<style type="text/css">
	.st0{fill:#20391B;}
</style>
<g>
	<path class="st0" d="M1.53,26.54c-0.83-1.55-0.33-3.46,1.14-4.42C8.89,18.04,19.41,9.69,32.81,5.49
		c21.96-6.86,103.88,26.77,119.43,33.29c1.87,0.78,3.39,2.24,4.19,4.1c1.16,2.68,1.65,5.41,2.36,8.15c0.96,3.74-2.86,6.9-6.37,5.31
		C117.3,40.47,64.16,25.21,46.94,28.53c-8.14,1.57-17.6,9.97-27.49,20.76c-1.77,1.93-4.92,1.53-6.16-0.78L1.53,26.54z"/>
	<polygon class="st0" points="0.01,23.71 0.01,23.71 0,23.72 	"/>
	<path class="st0" d="M165.63,62.86c-0.03-0.02-0.05-0.05-0.08-0.07c0.05,0.02,0.09,0.05,0.14,0.07H165.63z"/>
</g>
<script  xmlns=""></script>
</svg>
