<?xml version="1.0" encoding="utf-8"?>
<!-- Generator: Adobe Illustrator 30.3.0, SVG Export Plug-In . SVG Version: 9.03 Build 0)  -->
<svg version="1.0" id="Layer_2_00000088820806678621995130000008437698046644227002_"
	 xmlns="http://www.w3.org/2000/svg" xmlns:xlink="http://www.w3.org/1999/xlink" x="0px" y="0px" viewBox="0 0 33.22 33.22"
	 style="enable-background:new 0 0 33.22 33.22;" xml:space="preserve">
<style type="text/css">
	.st0{fill:#9FD7CB;}
</style>
<g id="Layer_1-2">
	<g id="Switcher_PRessed">
		<path class="st0" d="M32.72,16.6c0,8.9-7.2,16.11-16.1,16.12c-8.9,0-16.11-7.2-16.12-16.1C0.49,7.72,7.7,0.51,16.6,0.5l0,0
			c8.89-0.01,16.1,7.18,16.11,16.07c0,0.01,0,0.02,0,0.03H32.72z"/>
		<g>
			<polygon class="st0" points="14.1,16.5 11.07,16.5 11.07,12.72 16.54,12.72 16.54,14.04 18.34,14.04 18.34,10.98 9.45,10.98 
				9.45,18.37 14.1,18.37 			"/>
			<path class="st0" d="M14.85,14.66v7.59h9v-7.59H14.85z M22.01,20.45h-5.47V16.5h5.47V20.45z"/>
		</g>
	</g>
</g>
<script  xmlns=""></script>
</svg>
