<?xml version="1.0" encoding="utf-8"?>
<!-- Generator: Adobe Illustrator 30.3.0, SVG Export Plug-In . SVG Version: 9.03 Build 0)  -->
<svg version="1.0" id="Layer_2_00000026138168323699642720000004670003649078471066_"
	 xmlns="http://www.w3.org/2000/svg" xmlns:xlink="http://www.w3.org/1999/xlink" x="0px" y="0px" viewBox="0 0 83.38 83.38"
	 style="enable-background:new 0 0 83.38 83.38;" xml:space="preserve">
<style type="text/css">
	.st0{fill:#20391B;}
	.st1{opacity:0.06;}
</style>
<g id="Layer_1-2">
	<g>
		<g>
			<path class="st0" d="M70.48,41.7c0,15.9-12.9,28.79-28.8,28.78S12.9,57.58,12.9,41.68S25.79,12.9,41.68,12.9
				c15.9-0.01,28.79,12.87,28.8,28.77C70.48,41.67,70.48,41.7,70.48,41.7z"/>
			<path class="st0" d="M41.68,12.9H40.3l0.69,13.81h0.69L41.68,12.9L41.68,12.9z M38.92,13.03h-0.21
				c-0.39,0.04-0.77,0.09-1.15,0.15l1.96,13.67c0.24,0,0.48-0.06,0.69-0.08L38.92,13.03z M36.19,13.43h-0.36
				c-0.33,0.07-0.69,0.14-0.99,0.22l3.27,13.42c0.23-0.06,0.46-0.11,0.69-0.15L36.19,13.43z M33.51,14.12l-0.55,0.17h-0.08
				l-0.64,0.21l4.55,13.04c0.22-0.08,0.45-0.15,0.69-0.21l-3.96-13.24V14.12z M30.9,14.97c-0.43,0.17-0.85,0.36-1.27,0.55
				l5.79,12.57c0.22-0.1,0.44-0.2,0.69-0.29L30.9,14.97z M28.4,16.15c-0.41,0.21-0.81,0.44-1.21,0.69l6.97,11.93
				c0.2-0.12,0.41-0.24,0.62-0.35C34.78,28.42,28.4,16.15,28.4,16.15z M26.01,17.53c-0.39,0.25-0.77,0.5-1.15,0.78l8.08,11.2
				l0.59-0.41l-7.53-11.56C26.01,17.54,26.01,17.53,26.01,17.53z M23.77,19.14c-0.36,0.29-0.71,0.59-1.06,0.89l9.1,10.36
				c0.19-0.16,0.37-0.31,0.56-0.46l-8.6-10.77C23.77,19.15,23.77,19.14,23.77,19.14z M21.7,20.96l-0.58,0.58l0,0l-0.3,0.31
				l10.05,9.47c0.17-0.17,0.34-0.35,0.51-0.51l-9.7-9.83L21.7,20.96L21.7,20.96z M19.8,22.98L19.8,22.98
				c-0.26,0.31-0.51,0.62-0.76,0.94l0,0l10.91,8.47c0.15-0.19,0.3-0.37,0.46-0.56l-10.5-8.98C19.91,22.85,19.8,22.98,19.8,22.98z
				 M18.11,25.17L18,25.32l0,0c-0.22,0.32-0.44,0.64-0.64,0.96l11.67,7.39c0.13-0.2,0.26-0.41,0.4-0.6
				C29.43,33.07,18.11,25.17,18.11,25.17z M16.63,27.5l-0.31,0.56l0,0c-0.12,0.21-0.23,0.43-0.34,0.64l12.33,6.21
				c0.1-0.21,0.22-0.43,0.34-0.64l-12.02-6.82C16.63,27.47,16.63,27.5,16.63,27.5z M15.39,29.96l-0.14,0.31l0,0v0.04l0,0v0.04l0,0
				c-0.12,0.29-0.24,0.58-0.36,0.88l12.86,5.01c0.09-0.22,0.18-0.44,0.28-0.69C28.04,35.56,15.39,29.96,15.39,29.96z M14.39,32.53
				c-0.06,0.19-0.12,0.37-0.18,0.56l0,0c-0.04,0.12-0.08,0.25-0.11,0.38l13.29,3.75c0.07-0.23,0.14-0.46,0.21-0.69l-13.12-4.38
				C14.48,32.15,14.39,32.53,14.39,32.53z M13.64,35.19c-0.08,0.37-0.16,0.73-0.23,1.1c0,0.09-0.03,0.17-0.05,0.26L26.95,39
				c0.04-0.23,0.09-0.47,0.15-0.69L13.64,35.19L13.64,35.19L13.64,35.19z M13.15,37.91l-0.1,0.88h0l-0.04,0.41l13.76,1.15
				c0-0.24,0.05-0.48,0.08-0.69l-13.7-1.8C13.15,37.86,13.15,37.91,13.15,37.91z M12.92,40.67v0.69l0,0v0.04l0,0v0.17l0,0v0.28
				l13.81-0.16l0,0v-0.54l-13.81-0.49V40.67z M26.73,42.62l-13.81,0.81c0,0.39,0.06,0.79,0.09,1.17l0,0v0.12l13.73-1.47
				c0-0.23-0.05-0.48-0.06-0.69C26.68,42.57,26.73,42.62,26.73,42.62z M26.89,44.06l-13.64,2.11l0,0c0.06,0.37,0.12,0.73,0.19,1.08
				l0,0v0.12l13.53-2.76c-0.05-0.23-0.09-0.46-0.12-0.69C26.84,43.92,26.89,44.06,26.89,44.06z M27.18,45.44L13.8,48.89
				c0.12,0.45,0.24,0.89,0.37,1.33l13.2-4.07c-0.07-0.23-0.13-0.46-0.19-0.69C27.18,45.46,27.18,45.44,27.18,45.44z M27.6,46.82
				l-12.98,4.7c0.16,0.44,0.32,0.86,0.5,1.29l12.74-5.33c-0.09-0.22-0.18-0.44-0.26-0.69C27.6,46.79,27.6,46.82,27.6,46.82z
				 M28.15,48.13l-12.47,5.92c0,0.05,0.05,0.1,0.08,0.15l0,0c0.12,0.26,0.25,0.5,0.38,0.76l0,0l0.12,0.22l12.17-6.53
				c-0.11-0.21-0.22-0.43-0.32-0.64L28.15,48.13z M28.84,49.4l-11.86,7.09l0.21,0.33l0,0c0.17,0.26,0.34,0.53,0.51,0.79l11.5-7.62
				c-0.13-0.2-0.26-0.4-0.39-0.61C28.82,49.38,28.84,49.4,28.84,49.4z M29.64,50.59l-11.12,8.2l0.16,0.21l0,0
				c0.16,0.21,0.32,0.41,0.49,0.61l10.7-8.73c-0.15-0.19-0.3-0.38-0.44-0.57L29.64,50.59z M30.55,51.71l-10.29,9.22
				c0.31,0.34,0.62,0.69,0.95,1l9.83-9.71c-0.17-0.17-0.34-0.35-0.5-0.52C30.54,51.7,30.55,51.71,30.55,51.71z M31.57,52.74
				L22.2,62.89l0.52,0.47h0.04l0.46,0.39l8.85-10.6c-0.19-0.15-0.37-0.32-0.55-0.48C31.54,52.68,31.57,52.74,31.57,52.74z
				 M32.66,53.64l-8.33,11.05l0.64,0.47l0.48,0.33l7.8-11.39C33.24,54.1,32.66,53.64,32.66,53.64z M33.85,54.46L26.6,66.2l0.07,0.05
				l0,0c0.35,0.21,0.69,0.41,1.05,0.61l0,0l6.67-12.09l-0.62-0.36C33.77,54.4,33.85,54.46,33.85,54.46z M35.1,55.15l-6.08,12.43
				l0.23,0.12h0.11c0.29,0.14,0.58,0.27,0.88,0.39l5.48-12.68c-0.21-0.09-0.44-0.19-0.65-0.3C35.07,55.11,35.1,55.15,35.1,55.15z
				 M36.41,55.71l-4.83,12.93c0.44,0.17,0.86,0.31,1.31,0.46l4.23-13.12l-0.69-0.23C36.43,55.74,36.41,55.71,36.41,55.71z
				 M37.8,56.15l-3.61,13.38l0.17,0.04h0.14c0.35,0.09,0.69,0.17,1.04,0.25l2.94-13.5c-0.23-0.05-0.46-0.1-0.69-0.17
				C37.77,56.15,37.8,56.15,37.8,56.15z M39.18,56.45l-2.29,13.62c0.35,0.06,0.69,0.11,1.04,0.15l0.32,0.04l1.63-13.71
				c-0.24,0-0.48-0.06-0.69-0.1C39.2,56.45,39.18,56.45,39.18,56.45z M40.61,56.63l-0.97,13.81h1.4l0.32-13.81H40.61z M42.79,56.63
				l-0.69,0.03l0.32,13.81h0.48l0.82-0.04h0.08l-0.98-13.81L42.79,56.63L42.79,56.63z M44.22,56.45c-0.23,0.04-0.48,0.08-0.69,0.1
				l1.64,13.71c0.43-0.06,0.85-0.11,1.26-0.18h0.1l-2.29-13.62C44.24,56.47,44.22,56.45,44.22,56.45z M45.6,56.15
				c-0.23,0.06-0.46,0.12-0.69,0.17l2.94,13.5h0.29l0.52-0.12h0.25l0.32-0.17l-3.59-13.34C45.64,56.18,45.6,56.15,45.6,56.15z
				 M46.98,55.71l-0.69,0.23l4.24,13.12l0.64-0.21h0.14l0.53-0.2L47,55.74C47,55.74,46.98,55.71,46.98,55.71z M48.29,55.14
				l-0.65,0.3l5.47,12.7c0.24-0.1,0.48-0.21,0.69-0.32h0.11l0.42-0.2l-6.08-12.43C48.25,55.19,48.29,55.14,48.29,55.14z
				 M49.55,54.45c-0.21,0.12-0.41,0.25-0.62,0.36L55.6,66.9l0.12-0.07h0.07c0.32-0.18,0.64-0.37,0.95-0.55L49.5,54.54
				C49.5,54.54,49.55,54.45,49.55,54.45z M50.72,53.64c-0.19,0.15-0.39,0.29-0.59,0.42l7.8,11.39c0.17-0.12,0.35-0.24,0.52-0.37h0.1
				l0.41-0.31C58.97,64.78,50.72,53.64,50.72,53.64z M51.83,52.72c-0.17,0.17-0.36,0.32-0.54,0.48l8.85,10.6h0.23
				c0.23-0.19,0.46-0.39,0.69-0.59h0.04L51.83,52.72C51.83,52.72,51.83,52.72,51.83,52.72z M52.84,51.69
				c-0.16,0.18-0.32,0.36-0.5,0.53l9.83,9.67l0,0c0.21-0.22,0.43-0.44,0.64-0.69l0,0l0.22-0.24L52.84,51.69
				C52.84,51.69,52.84,51.69,52.84,51.69z M53.75,50.58c-0.14,0.19-0.29,0.38-0.44,0.57l10.7,8.71l0,0
				c0.14-0.18,0.28-0.36,0.42-0.55l0,0l0.25-0.32L53.75,50.58C53.75,50.58,53.75,50.58,53.75,50.58z M54.55,49.38
				c-0.12,0.21-0.26,0.41-0.39,0.61l11.49,7.66l0.1-0.15l0,0c0.21-0.32,0.42-0.66,0.62-0.99l0,0L54.55,49.38
				C54.55,49.38,54.55,49.38,54.55,49.38z M55.25,48.11c-0.1,0.22-0.21,0.44-0.32,0.64l12.17,6.53l0.19-0.35
				c0.1-0.19,0.19-0.38,0.28-0.57l0,0c0-0.08,0.07-0.15,0.11-0.23l-12.44-6.01L55.25,48.11L55.25,48.11z M55.8,46.8
				c-0.08,0.22-0.17,0.44-0.26,0.69l12.74,5.32l0.2-0.48l0,0c0.1-0.25,0.19-0.49,0.28-0.73l-12.98-4.7
				C55.77,46.9,55.8,46.8,55.8,46.8z M56.21,45.42c-0.06,0.23-0.12,0.46-0.19,0.69l13.19,4.08l0.08-0.28l0,0l0.23-0.84l-13.38-3.45
				L56.21,45.42L56.21,45.42z M56.5,44.04c0,0.23-0.08,0.47-0.12,0.69l13.53,2.76c0.08-0.39,0.15-0.79,0.21-1.19v-0.17l-13.64-2.12
				C56.47,44.01,56.5,44.04,56.5,44.04z M56.65,42.6c0,0.24,0,0.48-0.06,0.69l13.73,1.47c0-0.17,0.03-0.32,0.05-0.49l0,0
				c0-0.26,0.04-0.52,0.06-0.79v-0.04l-13.81-0.81L56.65,42.6z M70.46,40.65l-13.81,0.49v0.76l13.81,0.16v-0.3l0,0V41.7l0,0v-0.12
				l0,0v-0.23l0,0v-0.3l0,0v-0.06l0,0v-0.1l0,0C70.46,40.88,70.46,40.65,70.46,40.65z M70.24,37.89l-13.69,1.8
				c0,0.23,0.06,0.48,0.08,0.69l13.76-1.15v-0.32l0,0c0-0.32-0.07-0.64-0.11-0.95C70.27,37.97,70.24,37.89,70.24,37.89z
				 M69.75,35.18l-13.46,3.11c0.06,0.23,0.1,0.47,0.15,0.69l13.59-2.46l-0.12-0.66l0,0l-0.04-0.22l0,0V35.6l0,0l-0.04-0.17
				C69.82,35.43,69.75,35.18,69.75,35.18z M68.99,32.52l-13.12,4.39c0.08,0.23,0.15,0.46,0.21,0.69l13.29-3.76l0,0
				c-0.1-0.34-0.2-0.69-0.31-1.01l0,0c0-0.07-0.05-0.13-0.07-0.2C68.99,32.64,68.99,32.52,68.99,32.52z M67.99,29.94l-12.62,5.64
				c0.1,0.22,0.19,0.44,0.28,0.69l12.86-5.02c-0.17-0.43-0.35-0.86-0.53-1.28L67.99,29.94L67.99,29.94z M66.74,27.48l-11.99,6.83
				c0.12,0.21,0.23,0.42,0.34,0.64l12.33-6.21c-0.19-0.36-0.37-0.69-0.57-1.07l0,0C66.85,27.66,66.74,27.48,66.74,27.48z
				 M65.26,25.15l-11.3,7.94c0.14,0.19,0.27,0.39,0.4,0.59l11.66-7.39l-0.09-0.14l0,0l-0.46-0.69l0,0l-0.19-0.26L65.26,25.15z
				 M63.57,22.97l-10.49,8.98c0.15,0.18,0.3,0.37,0.46,0.56l10.88-8.46l-0.08-0.1l0,0l-0.09-0.1
				C64.26,23.84,63.57,22.97,63.57,22.97z M61.66,20.97l-9.59,9.94l0.51,0.51l10.06-9.47l0,0c-0.32-0.34-0.64-0.69-0.97-0.98
				C61.67,20.97,61.66,20.97,61.66,20.97z M59.59,19.12L51,29.96c0.19,0.15,0.37,0.3,0.55,0.46l9.1-10.36l-0.16-0.15l0,0
				C60.49,19.92,59.59,19.12,59.59,19.12z M57.34,17.51l-7.51,11.61c0.2,0.13,0.4,0.26,0.59,0.41l8.07-11.21l-0.29-0.23h-0.04
				l-0.35-0.25h-0.06l-0.38-0.25C57.38,17.59,57.34,17.51,57.34,17.51z M54.96,16.13l-6.38,12.25c0.21,0.11,0.42,0.23,0.63,0.35
				l6.97-11.91l-0.3-0.17h-0.04c-0.28-0.16-0.55-0.3-0.84-0.46C55,16.18,54.96,16.13,54.96,16.13z M52.46,14.97l-5.17,12.8
				l0.66,0.28l5.79-12.54h-0.22c-0.35-0.16-0.69-0.3-1.05-0.45L52.46,14.97L52.46,14.97z M49.85,14.08l-3.91,13.24l0.69,0.22
				l4.55-13.04l-0.93-0.3h-0.1l-0.29-0.09C49.87,14.1,49.85,14.08,49.85,14.08z M47.16,13.43l-2.62,13.56l0.69,0.15l3.31-13.42
				h-0.16l-0.57-0.13h-0.16c-0.16-0.04-0.31-0.07-0.46-0.1L47.16,13.43L47.16,13.43z M44.4,13.03l-1.26,13.75
				c0.24,0,0.48,0.05,0.69,0.08l1.99-13.67l-0.35-0.04h-0.15l-0.62-0.07h-0.26L44.4,13.03L44.4,13.03z M41.63,12.9v13.81h0.73
				l0.65-13.81H41.63z"/>
		</g>
		<path class="st0" d="M41.68,14.28c15.14,0,27.41,12.26,27.41,27.4c0,15.14-12.26,27.41-27.4,27.41
			c-15.14,0-27.41-12.26-27.41-27.4C14.3,26.57,26.55,14.31,41.68,14.28 M41.68,12.9c-15.9,0-28.78,12.9-28.78,28.8
			s12.9,28.79,28.8,28.78c15.9,0,28.77-12.89,28.78-28.78c0.01-15.9-12.89-28.8-28.78-28.8C41.7,12.9,41.69,12.9,41.68,12.9z"/>
		<g class="st1">
			<path class="st0" d="M66.56,41.7c0,13.73-11.13,24.86-24.86,24.86S16.84,55.42,16.84,41.7S27.97,16.84,41.7,16.84
				S66.56,27.97,66.56,41.7z"/>
		</g>
		<g>
			<path class="st0" d="M41.68,61.12c-10.73,0-19.42-8.69-19.42-19.42s8.69-19.42,19.42-19.42s19.42,8.69,19.42,19.42l0,0
				C61.1,52.42,52.41,61.11,41.68,61.12z"/>
			<path class="st0" d="M41.68,24.35c9.58-0.02,17.37,7.73,17.39,17.31c0.02,9.58-7.73,17.37-17.31,17.39
				c-9.58,0.02-17.37-7.73-17.39-17.31c0-0.01,0-0.03,0-0.05c0.01-9.58,7.77-17.33,17.35-17.35 M41.72,20.21
				c-11.87-0.02-21.51,9.59-21.53,21.46c-0.02,11.87,9.59,21.51,21.46,21.53c11.87,0.02,21.51-9.59,21.53-21.46
				c0-0.01,0-0.03,0-0.04c0-11.87-9.62-21.49-21.49-21.49l0,0L41.72,20.21L41.72,20.21z"/>
		</g>
	</g>
</g>
<script  xmlns=""></script>
</svg>
