<?xml version="1.0" encoding="utf-8"?>
<!-- Generator: Adobe Illustrator 30.3.0, SVG Export Plug-In . SVG Version: 9.03 Build 0)  -->
<svg version="1.0" id="Layer_2_00000026138168323699642720000004670003649078471066_"
	 xmlns="http://www.w3.org/2000/svg" xmlns:xlink="http://www.w3.org/1999/xlink" x="0px" y="0px" viewBox="0 0 83.38 83.38"
	 style="enable-background:new 0 0 83.38 83.38;" xml:space="preserve">
<style type="text/css">
	.st0{fill:#20391B;}
	.st1{opacity:0.06;}
</style>
<g id="Layer_1-2">
	<g>
		<g>
			<path class="st0" d="M83.38,41.7c0,23.02-18.68,41.69-41.7,41.68C18.66,83.37,0,64.7,0,41.68S18.66,0,41.68,0
				c23.02-0.01,41.69,18.64,41.7,41.66C83.38,41.66,83.38,41.7,83.38,41.7z"/>
			<path class="st0" d="M41.68,0h-2.01l1,20h1L41.68,0L41.68,0z M37.68,0.19h-0.31c-0.56,0.06-1.12,0.13-1.67,0.21l2.84,19.79
				c0.35,0,0.69-0.09,1-0.12L37.68,0.19z M33.73,0.76h-0.52c-0.48,0.1-1,0.2-1.44,0.32l4.74,19.43c0.33-0.08,0.67-0.16,1-0.22
				L33.73,0.76z M29.84,1.76L29.04,2h-0.12l-0.93,0.31l6.59,18.88c0.32-0.11,0.65-0.22,1-0.31L29.84,1.71V1.76z M26.07,3
				c-0.62,0.25-1.23,0.52-1.84,0.8L32.61,22c0.32-0.15,0.63-0.29,1-0.42L26.07,3z M22.44,4.7c-0.59,0.31-1.18,0.63-1.75,1
				l10.09,17.28c0.29-0.18,0.6-0.35,0.9-0.51C31.68,22.47,22.44,4.7,22.44,4.7z M18.99,6.7c-0.56,0.36-1.11,0.73-1.66,1.13
				l11.7,16.22l0.86-0.59L18.99,6.72C18.99,6.72,18.99,6.7,18.99,6.7z M15.74,9.03c-0.52,0.42-1.03,0.85-1.53,1.29l13.18,15
				c0.27-0.23,0.53-0.45,0.81-0.67L15.74,9.05C15.74,9.05,15.74,9.03,15.74,9.03z M12.74,11.67l-0.84,0.84l0,0l-0.43,0.45
				l14.56,13.71c0.24-0.25,0.49-0.5,0.74-0.74L12.73,11.69L12.74,11.67L12.74,11.67z M9.99,14.6L9.99,14.6
				c-0.38,0.45-0.74,0.9-1.1,1.36l0,0l15.8,12.26c0.21-0.27,0.44-0.54,0.66-0.81l-15.2-13C10.15,14.41,9.99,14.6,9.99,14.6z
				 M7.54,17.76l-0.15,0.23l0,0c-0.32,0.46-0.63,0.92-0.93,1.39l16.9,10.7c0.19-0.29,0.38-0.59,0.58-0.87
				C23.94,29.21,7.54,17.76,7.54,17.76z M5.4,21.14l-0.45,0.81l0,0c-0.17,0.31-0.33,0.62-0.49,0.93l17.85,9
				c0.15-0.31,0.32-0.62,0.49-0.92L5.4,21.09C5.4,21.09,5.4,21.14,5.4,21.14z M3.61,24.71l-0.2,0.45l0,0v0.06l0,0v0.06l0,0
				c-0.18,0.42-0.35,0.84-0.52,1.27l18.63,7.26c0.13-0.32,0.26-0.64,0.4-1C21.92,32.81,3.61,24.71,3.61,24.71z M2.16,28.43
				c-0.09,0.27-0.18,0.54-0.26,0.81l0,0c-0.06,0.18-0.11,0.36-0.16,0.55l19.24,5.43c0.1-0.33,0.2-0.66,0.31-1l-19-6.35
				C2.29,27.87,2.16,28.43,2.16,28.43z M1.07,32.28c-0.12,0.53-0.23,1.06-0.33,1.59c0,0.13-0.05,0.25-0.07,0.37l19.68,3.55
				c0.06-0.34,0.13-0.68,0.21-1l-19.49-4.5l0,0L1.07,32.28z M0.36,36.22L0.21,37.5h0l-0.06,0.59l19.93,1.66c0-0.35,0.07-0.7,0.12-1
				l-19.84-2.6C0.36,36.15,0.36,36.22,0.36,36.22z M0.03,40.22v1l0,0v0.06l0,0v0.24l0,0v0.4l20-0.23l0,0v-0.78l-20-0.71V40.22z
				 M20.03,43.04l-20,1.18c0,0.57,0.08,1.14,0.13,1.7l0,0v0.18l19.89-2.13c0-0.34-0.07-0.69-0.09-1
				C19.96,42.97,20.03,43.04,20.03,43.04z M20.26,45.12L0.5,48.18l0,0c0.09,0.53,0.18,1.05,0.28,1.57l0,0v0.17l19.59-4
				c-0.07-0.34-0.13-0.67-0.18-1C20.19,44.92,20.26,45.12,20.26,45.12z M20.67,47.12l-19.37,5c0.17,0.65,0.35,1.29,0.54,1.93
				l19.11-5.9c-0.1-0.33-0.19-0.67-0.28-1C20.67,47.15,20.67,47.12,20.67,47.12z M21.28,49.12l-18.8,6.81
				c0.23,0.63,0.47,1.25,0.73,1.87l18.45-7.72c-0.13-0.32-0.26-0.64-0.38-1C21.28,49.08,21.28,49.12,21.28,49.12z M22.08,51.02
				L4.02,59.6c0,0.07,0.07,0.15,0.11,0.22l0,0c0.17,0.37,0.36,0.73,0.55,1.1l0,0l0.17,0.32l17.63-9.45
				c-0.16-0.31-0.32-0.62-0.47-0.93L22.08,51.02z M23.08,52.85L5.91,63.12l0.3,0.48l0,0c0.24,0.38,0.49,0.77,0.74,1.14l16.66-11.03
				c-0.19-0.29-0.38-0.58-0.56-0.88C23.05,52.83,23.08,52.85,23.08,52.85z M24.24,54.58L8.13,66.45l0.23,0.3l0,0
				c0.23,0.3,0.47,0.6,0.71,0.89L24.57,55c-0.22-0.27-0.44-0.55-0.64-0.83L24.24,54.58z M25.56,56.2l-14.9,13.35
				c0.45,0.49,0.9,1,1.37,1.45l14.23-14.06c-0.25-0.24-0.49-0.5-0.72-0.76C25.54,56.18,25.56,56.2,25.56,56.2z M27.03,57.69
				l-13.56,14.7l0.76,0.68h0.06l0.67,0.57l12.82-15.35c-0.27-0.22-0.54-0.46-0.79-0.69C26.99,57.6,27.03,57.69,27.03,57.69z
				 M28.61,59L16.54,75l0.93,0.68l0.69,0.48l11.3-16.5C29.46,59.66,28.61,59,28.61,59z M30.33,60.18l-10.49,17l0.1,0.07l0,0
				c0.5,0.3,1,0.6,1.52,0.88l0,0l9.66-17.51l-0.9-0.52C30.22,60.1,30.33,60.18,30.33,60.18z M32.15,61.18l-8.81,18l0.34,0.17h0.16
				c0.42,0.2,0.84,0.39,1.27,0.57l7.93-18.36c-0.31-0.13-0.63-0.28-0.94-0.43C32.1,61.13,32.15,61.18,32.15,61.18z M34.05,62
				l-7,18.72c0.63,0.24,1.25,0.45,1.89,0.66l6.13-19l-1-0.34C34.07,62.04,34.05,62,34.05,62z M36.05,62.63L30.82,82l0.24,0.06h0.2
				c0.5,0.13,1,0.25,1.5,0.36l4.26-19.55c-0.34-0.07-0.67-0.15-1-0.24C36.02,62.63,36.05,62.63,36.05,62.63z M38.05,63.07
				L34.74,82.8c0.5,0.08,1,0.16,1.51,0.22l0.47,0.06l2.36-19.86c-0.35,0-0.69-0.09-1-0.15C38.08,63.07,38.05,63.07,38.05,63.07z
				 M40.12,63.32l-1.41,20h2.03l0.47-20H40.12z M43.28,63.32l-1,0.05l0.47,20h0.69l1.19-0.06h0.12l-1.42-20L43.28,63.32L43.28,63.32
				z M45.35,63.07c-0.34,0.06-0.69,0.11-1,0.15l2.37,19.86c0.62-0.08,1.23-0.16,1.83-0.26h0.15l-3.32-19.73
				C45.38,63.09,45.35,63.07,45.35,63.07z M47.35,62.63c-0.33,0.09-0.67,0.17-1,0.24l4.26,19.55h0.42l0.76-0.18h0.36L52.61,82
				l-5.2-19.32C47.41,62.68,47.35,62.63,47.35,62.63z M49.35,62l-1,0.34l6.14,19l0.92-0.31h0.2l0.77-0.29l-7-18.71
				C49.38,62.03,49.35,62,49.35,62z M51.25,61.17l-0.94,0.44L58.23,80c0.35-0.15,0.7-0.3,1-0.47h0.16L60,79.24l-8.81-18
				C51.19,61.24,51.25,61.17,51.25,61.17z M53.07,60.17c-0.3,0.18-0.6,0.36-0.9,0.52l9.67,17.51l0.18-0.1h0.1
				c0.47-0.26,0.92-0.53,1.37-0.8L53,60.3C53,60.3,53.07,60.17,53.07,60.17z M54.77,59c-0.28,0.21-0.56,0.42-0.85,0.61l11.3,16.5
				c0.25-0.17,0.51-0.35,0.75-0.53h0.15l0.6-0.45C66.72,75.13,54.77,59,54.77,59z M56.37,57.66c-0.25,0.24-0.52,0.47-0.78,0.69
				L68.41,73.7h0.34c0.34-0.28,0.66-0.57,1-0.86h0.06L56.37,57.66C56.37,57.66,56.37,57.66,56.37,57.66z M57.84,56.17
				c-0.23,0.26-0.47,0.52-0.72,0.77l14.23,14l0,0c0.31-0.32,0.62-0.64,0.92-1l0,0l0.32-0.35L57.84,56.17
				C57.84,56.17,57.84,56.17,57.84,56.17z M59.16,54.56c-0.2,0.27-0.42,0.55-0.64,0.82L74.02,68l0,0c0.2-0.26,0.41-0.52,0.61-0.79
				l0,0l0.36-0.47L59.16,54.56C59.16,54.56,59.16,54.56,59.16,54.56z M60.32,52.82c-0.18,0.3-0.37,0.59-0.56,0.88L76.4,64.8
				l0.14-0.21l0,0c0.31-0.47,0.61-0.95,0.9-1.43l0,0L60.32,52.82C60.32,52.82,60.32,52.82,60.32,52.82z M61.32,50.99
				c-0.15,0.32-0.31,0.63-0.47,0.93l17.63,9.45l0.27-0.51c0.14-0.28,0.28-0.55,0.41-0.83l0,0c0-0.11,0.1-0.22,0.16-0.33L61.3,51
				L61.32,50.99L61.32,50.99z M62.12,49.09c-0.12,0.32-0.25,0.64-0.38,1l18.45,7.71l0.29-0.69l0,0c0.14-0.36,0.27-0.71,0.4-1.06
				l-18.8-6.81C62.08,49.24,62.12,49.09,62.12,49.09z M62.72,47.09c-0.08,0.33-0.18,0.67-0.28,1L81.54,54l0.12-0.41l0,0l0.33-1.21
				l-19.38-5L62.72,47.09L62.72,47.09z M63.14,45.09c0,0.34-0.12,0.68-0.18,1l19.59,4c0.11-0.57,0.22-1.15,0.31-1.72v-0.25
				L63.1,45.05C63.1,45.05,63.14,45.09,63.14,45.09z M63.36,43.01c0,0.35,0,0.7-0.08,1l19.88,2.13c0-0.24,0.05-0.47,0.07-0.71l0,0
				c0-0.38,0.06-0.76,0.08-1.14v-0.06l-20-1.18L63.36,43.01z M83.36,40.19l-20,0.71V42l20,0.23V41.8l0,0v-0.09l0,0v-0.17l0,0V41.2
				l0,0v-0.44l0,0v-0.09l0,0v-0.15l0,0C83.36,40.52,83.36,40.19,83.36,40.19z M83.03,36.19L63.2,38.8c0,0.34,0.08,0.69,0.11,1
				l19.93-1.66v-0.47l0,0c0-0.46-0.1-0.92-0.16-1.37C83.08,36.3,83.03,36.19,83.03,36.19z M82.32,32.26l-19.49,4.5
				c0.08,0.33,0.15,0.68,0.21,1l19.68-3.56l-0.18-0.95l0,0l-0.06-0.32l0,0v-0.06l0,0l-0.06-0.24
				C82.42,32.63,82.32,32.26,82.32,32.26z M81.23,28.41l-19,6.36c0.11,0.33,0.21,0.66,0.3,1l19.25-5.44l0,0
				c-0.14-0.49-0.29-1-0.45-1.46l0,0c0-0.1-0.07-0.19-0.1-0.29C81.23,28.58,81.23,28.41,81.23,28.41z M79.78,24.68l-18.27,8.17
				c0.14,0.32,0.27,0.64,0.4,1l18.63-7.27c-0.24-0.62-0.5-1.24-0.77-1.85L79.78,24.68L79.78,24.68z M77.97,21.11L60.61,31
				c0.17,0.3,0.34,0.61,0.49,0.92l17.85-9c-0.27-0.52-0.54-1-0.83-1.55l0,0C78.12,21.37,77.97,21.11,77.97,21.11z M75.83,17.74
				l-16.36,11.5c0.2,0.28,0.39,0.57,0.58,0.86l16.89-10.7l-0.13-0.2l0,0l-0.66-1l0,0l-0.27-0.38L75.83,17.74z M73.38,14.58
				l-15.19,13c0.22,0.26,0.44,0.53,0.66,0.81l15.76-12.25l-0.11-0.15l0,0l-0.13-0.15C74.37,15.84,73.38,14.58,73.38,14.58z
				 M70.61,11.68l-13.89,14.4l0.74,0.74L72.03,13.1l0,0c-0.46-0.49-0.92-1-1.4-1.42C70.63,11.68,70.61,11.68,70.61,11.68z M67.61,9
				L55.17,24.7c0.27,0.21,0.54,0.44,0.8,0.67l13.18-15l-0.23-0.21l0,0C68.92,10.16,67.61,9,67.61,9z M64.36,6.67L53.48,23.48
				c0.29,0.19,0.58,0.38,0.86,0.59L66.03,7.84l-0.42-0.33h-0.06l-0.51-0.36h-0.08l-0.55-0.36C64.41,6.79,64.36,6.67,64.36,6.67z
				 M60.91,4.67l-9.24,17.74c0.31,0.16,0.61,0.33,0.91,0.5L62.67,5.66l-0.43-0.25h-0.06c-0.4-0.23-0.8-0.44-1.21-0.66
				C60.97,4.75,60.91,4.67,60.91,4.67z M57.29,3L49.8,21.54l0.95,0.41l8.38-18.16h-0.32c-0.5-0.23-1-0.44-1.52-0.65L57.29,3L57.29,3
				z M53.51,1.7l-5.66,19.18l1,0.32l6.59-18.89L54.1,1.87h-0.15l-0.42-0.13C53.53,1.74,53.51,1.7,53.51,1.7z M49.61,0.76
				l-3.79,19.63l1,0.22l4.79-19.43h-0.23l-0.82-0.19h-0.23c-0.23-0.06-0.45-0.1-0.67-0.14L49.61,0.76L49.61,0.76z M45.61,0.19
				L43.78,20.1c0.35,0,0.7,0.07,1,0.12l2.88-19.8l-0.5-0.06h-0.21l-0.9-0.1h-0.38L45.61,0.19L45.61,0.19z M41.61,0v20h1.06l0.94-20
				H41.61z"/>
		</g>
		<path class="st0" d="M41.68,2c21.92,0,39.69,17.76,39.7,39.68c0,21.92-17.76,39.69-39.68,39.7C19.78,81.38,2.01,63.62,2,41.7
			C2.03,19.79,19.77,2.04,41.68,2 M41.68,0C18.66,0,0,18.68,0,41.7s18.68,41.69,41.7,41.68c23.02,0,41.67-18.66,41.68-41.68
			C83.39,18.68,64.72,0,41.7,0C41.7,0,41.69,0,41.68,0z"/>
		<g class="st1">
			<path class="st0" d="M77.7,41.7c0,19.88-16.12,36-36,36s-36-16.12-36-36s16.12-36,36-36S77.7,21.82,77.7,41.7z"/>
		</g>
		<g>
			<path class="st0" d="M41.68,69.83c-15.54,0-28.13-12.59-28.13-28.13s12.59-28.13,28.13-28.13S69.81,26.16,69.81,41.7l0,0
				C69.8,57.23,57.21,69.82,41.68,69.83z"/>
			<path class="st0" d="M41.68,16.58c13.88-0.03,25.16,11.19,25.19,25.07C66.9,55.53,55.68,66.81,41.8,66.84
				c-13.88,0.03-25.16-11.19-25.19-25.07c0-0.02,0-0.05,0-0.07c0.02-13.87,11.25-25.1,25.12-25.12 M41.73,10.58
				c-17.19-0.03-31.15,13.89-31.18,31.08c-0.03,17.19,13.89,31.15,31.08,31.18s31.15-13.89,31.18-31.08c0-0.02,0-0.04,0-0.06
				c0-17.19-13.93-31.12-31.12-31.12l0,0L41.73,10.58L41.73,10.58z"/>
		</g>
	</g>
</g>
<script  xmlns=""></script>
</svg>
